<svg xmlns="http://www.w3.org/2000/svg" viewBox="0 0 176.75 68.19"><defs><style>.cls-1{fill:#00aced;}.cls-2{fill:#2d3091;}</style></defs><title>MindPROS Logo</title><g id="Layer_2" data-name="Layer 2"><g id="Layer_2-2" data-name="Layer 2"><g id="_Group_" data-name="&lt;Group&gt;"><path id="_Path_" data-name="&lt;Path&gt;" class="cls-1" d="M132.32,53.63a25.34,25.34,0,0,1-6.27.06c-.37,0-.47-.32-.61-.57-1.32-2.33-2.63-4.67-4-7-1.06-1.88-2.1-3.77-3.18-5.65-.21-.36-.17-.52.21-.7a14.7,14.7,0,0,0,3.31-1.95,5.33,5.33,0,0,0,1.53-6.42A4.18,4.18,0,0,0,120.08,29a8.45,8.45,0,0,0-2.56-.12c-.46.05-.63.22-.62.72,0,3.48,0,7,0,10.42,0,4.33,0,8.66,0,13,0,.52-.09.74-.67.79a25.35,25.35,0,0,1-4.85,0c-.36,0-.48-.17-.45-.5a1.93,1.93,0,0,0,0-.34q0-13.87,0-27.74c0-.74,0-.74.71-.85a39.14,39.14,0,0,1,8.09-.35,13.51,13.51,0,0,1,6.44,1.8A7.7,7.7,0,0,1,130,32a9.21,9.21,0,0,1-1.92,6.83,8.61,8.61,0,0,1-2.39,2.07c-.4.24-.5.42-.23.89,2.23,3.81,4.41,7.65,6.61,11.48C132.17,53.34,132.22,53.44,132.32,53.63Z"/><path id="_Path_2" data-name="&lt;Path&gt;" class="cls-1" d="M164.86,54.12a18.55,18.55,0,0,1-7.09-1.23c-.49-.18-.57-.39-.48-.89a33.15,33.15,0,0,1,1-3.93c.13-.41.28-.46.66-.31a15.39,15.39,0,0,0,6.66,1.2,7.66,7.66,0,0,0,2.63-.57,3.24,3.24,0,0,0,2.13-2.73,3.44,3.44,0,0,0-1.48-3.47,13.48,13.48,0,0,0-2.94-1.35,31.38,31.38,0,0,1-4.46-1.92A6.61,6.61,0,0,1,158,33.16a8.93,8.93,0,0,1,1-5.15,8,8,0,0,1,5.52-3.79,19.83,19.83,0,0,1,10.7.94c.23.08.39.19.35.48a15.06,15.06,0,0,1-1.13,4c-.17.41-.45.17-.68.08a13.73,13.73,0,0,0-5.8-1.05,6,6,0,0,0-2.25.41c-2,.81-2,3.59-1,4.66a4.85,4.85,0,0,0,1.66,1.13c1.94.84,4,1.5,5.87,2.41a7.32,7.32,0,0,1,4.42,6.92,9,9,0,0,1-2,6.47A10.21,10.21,0,0,1,169,53.83,16.6,16.6,0,0,1,164.86,54.12Z"/><path id="_Path_3" data-name="&lt;Path&gt;" class="cls-1" d="M34.78,10.56l-1.92,2.29q-2.89,3.48-5.78,7c-.59.72-.58.73-1.42.36a11.53,11.53,0,0,1-7.2-9.33A26.63,26.63,0,0,1,19.27.23c0-.06.06-.11.12-.23A10,10,0,0,0,22.7,6.21a16.47,16.47,0,0,0,6.85,3.36,28.55,28.55,0,0,0,4.5.84C34.25,10.43,34.45,10.49,34.78,10.56Z"/><path id="_Path_4" data-name="&lt;Path&gt;" class="cls-1" d="M57,0a11.11,11.11,0,0,1,.7,2.81,25.11,25.11,0,0,1,.43,6.12,13,13,0,0,1-2.57,7.48,12.15,12.15,0,0,1-5.31,3.82.46.46,0,0,1-.63-.16l-6.65-8-1.38-1.65c1.13-.18,2.16-.32,3.19-.51a22.65,22.65,0,0,0,6-1.9A10.67,10.67,0,0,0,57,0Z"/><path id="_Compound_Path_" data-name="&lt;Compound Path&gt;" class="cls-1" d="M156.72,37.62a20.56,20.56,0,0,0-1.25-6.26,10.93,10.93,0,0,0-7.37-7,15.17,15.17,0,0,0-6.43-.33,10.68,10.68,0,0,0-8.44,6,19.82,19.82,0,0,0-1.88,9,20.93,20.93,0,0,0,1.22,7.48,11.1,11.1,0,0,0,6.84,6.93,15.12,15.12,0,0,0,5.94.65,11.44,11.44,0,0,0,4.3-1A11.27,11.27,0,0,0,155.73,46,22.25,22.25,0,0,0,156.72,37.62Zm-7.37,7.94a5.7,5.7,0,0,1-8.51,2.71,6.47,6.47,0,0,1-2.55-4,22.57,22.57,0,0,1-.47-7.51,12.86,12.86,0,0,1,1.26-4.86c1.77-3.41,6-3.51,8.24-2a6.47,6.47,0,0,1,2.46,3.91,18.43,18.43,0,0,1,.56,5.16A17,17,0,0,1,149.35,45.56Z"/><path id="_Compound_Path_2" data-name="&lt;Compound Path&gt;" class="cls-1" d="M109.3,32.2a8.6,8.6,0,0,0-3.94-6.54,12.08,12.08,0,0,0-6.1-1.72,57.62,57.62,0,0,0-8.51.24c-.76.07-.77,0-.77.8V53.2c0,.25,0,.47.35.51a26.2,26.2,0,0,0,4.93.07c.5,0,.7-.23.69-.79,0-2.64,0-5.28,0-7.92V44.6c0-.25.13-.37.39-.33a17.08,17.08,0,0,0,5.43-.33A8.66,8.66,0,0,0,109,37.68,13,13,0,0,0,109.3,32.2Zm-6.3,4a4.5,4.5,0,0,1-4.29,3.15c-.71,0-1.44,0-2.16,0-.46,0-.63-.16-.62-.63,0-1.53,0-3.07,0-4.6s0-3.11,0-4.67c0-.39.1-.54.51-.59a8.59,8.59,0,0,1,3.74.28,4.15,4.15,0,0,1,2.71,2.64A6.94,6.94,0,0,1,103,36.19Z"/><path id="_Path_5" data-name="&lt;Path&gt;" class="cls-2" d="M5.78,33.8c-.09,3.18-.19,6.35-.28,9.52s-.19,6.58-.27,9.88c0,.35-.09.49-.46.55a14.3,14.3,0,0,1-4.38,0C0,53.68,0,53.52,0,53.21q.41-10,.78-20.08c.11-2.75.24-5.5.33-8.25,0-.42.15-.55.57-.61a21.92,21.92,0,0,1,5.12,0,.93.93,0,0,1,.88.73q3.09,7.79,6.21,15.54l.18.44c.27-.09.27-.35.35-.54q3.2-7.73,6.36-15.47a1,1,0,0,1,.91-.73,18.64,18.64,0,0,1,4.72.06c.32,0,.45.13.47.48.16,3.79.35,7.57.53,11.36l.78,16.49c.06,1.11.07,1.1-1.05,1.21A17.13,17.13,0,0,1,23,53.75c-.34,0-.48-.14-.5-.53q-.26-7.53-.54-15.07c0-1.36-.11-2.71-.16-4.09-.26.11-.28.38-.37.59q-2.64,6.09-5.26,12.2a1.07,1.07,0,0,1-1,.81,16.54,16.54,0,0,1-3.3,0A.82.82,0,0,1,11.1,47c-1.63-4.19-3.29-8.38-4.94-12.56-.09-.23-.18-.45-.28-.68Z"/><path id="_Path_6" data-name="&lt;Path&gt;" class="cls-2" d="M30.92,56a26.48,26.48,0,0,1,.61-3.65c1.16-6.11,2.25-12.23,3.22-18.37.48-3,1-6.1,1.37-9.15a.9.9,0,0,0-.23-.79c-1.06-1.26-2.06-2.57-3.09-3.85a2.56,2.56,0,0,1,0-3.5q1.86-2.6,3.82-5.08a3.64,3.64,0,0,1,.46-.5,1.39,1.39,0,0,1,2.32.12c1.41,1.78,2.8,3.59,4.15,5.42A2.67,2.67,0,0,1,43.42,20Q41.9,22,40.36,24a1.11,1.11,0,0,0-.25.93c.65,5.61,1.49,11.2,2.43,16.78.73,4.38,1.57,8.73,2.41,13.09a5.46,5.46,0,0,1-1,4.54c-1.27,1.67-2.58,3.3-4,4.85-.12.13-.25.26-.38.38a2.06,2.06,0,0,1-3.21-.16c-.85-.93-1.67-1.9-2.48-2.87C33.24,60.75,32.64,60,32,59.2A5.23,5.23,0,0,1,30.92,56Z"/><path id="_Path_7" data-name="&lt;Path&gt;" class="cls-2" d="M53.65,35.45c.17-.2.25-.31.33-.41C56.27,32,59.76,31.48,63,32.67a5.72,5.72,0,0,1,3.63,4.68,15.93,15.93,0,0,1,.27,3.16c0,4.18,0,8.35,0,12.52,0,.52-.15.69-.65.75a19.55,19.55,0,0,1-4.65,0c-.43-.06-.54-.21-.54-.63,0-3.74,0-7.49,0-11.23A8.8,8.8,0,0,0,60.72,39a2.47,2.47,0,0,0-2.38-1.77,3.75,3.75,0,0,0-4.12,3.36A13.24,13.24,0,0,0,54.06,43c0,3.34,0,6.67,0,10,0,.57-.19.73-.69.78a18.17,18.17,0,0,1-4.66,0c-.34,0-.48-.14-.48-.53q0-10.08,0-20.16c0-.37.12-.52.46-.57a12.36,12.36,0,0,1,3.84,0,.7.7,0,0,1,.64.58C53.39,33.81,53.47,34.57,53.65,35.45Z"/><path id="_Path_8" data-name="&lt;Path&gt;" class="cls-2" d="M112.2,58.19h62.52a3.68,3.68,0,0,0,.47,0c.49-.08.53.19.55.59s-.18.55-.56.5H49.27c-.42,0-.65,0-.65-.55s.26-.54.66-.54H112.2Z"/><path id="_Path_9" data-name="&lt;Path&gt;" class="cls-2" d="M149.53,64.83c.56-.89,1.08-1.71,1.56-2.54a.89.89,0,0,1,1.08-.47c.48.12.49.52.49.92V67.4c0,.46-.24.75-.69.74a.68.68,0,0,1-.69-.76c0-.92,0-1.85,0-2.86a2.2,2.2,0,0,0-.62.81c-1,1.64-1.31,1.67-2.31,0a2.58,2.58,0,0,0-.6-.71v2.57c0,.65-.22,1-.65,1s-.71-.33-.71-1c0-1.45,0-2.89,0-4.33,0-.42,0-.85.48-1a.93.93,0,0,1,1.16.56C148.5,63.2,149,64,149.53,64.83Z"/><path id="_Path_10" data-name="&lt;Path&gt;" class="cls-2" d="M128.41,65.43v-2.6a1.49,1.49,0,0,1,.09-.66.62.62,0,0,1,.71-.38.59.59,0,0,1,.55.51,3.62,3.62,0,0,1,0,.47V67.1c0,.41,0,.83-.48,1s-.8-.14-1.07-.5q-1-1.4-2.13-2.79c-.13-.17-.21-.39-.52-.5v2.57c0,.22,0,.45,0,.67a.62.62,0,0,1-.61.61.66.66,0,0,1-.72-.58,1.27,1.27,0,0,1,0-.34V62.7c0-.38.06-.74.47-.87a.94.94,0,0,1,1.09.34l2.12,2.8c.13.17.27.33.41.49Z"/><path id="_Path_11" data-name="&lt;Path&gt;" class="cls-2" d="M158.56,64.35v2.7a2.42,2.42,0,0,1,0,.54.65.65,0,0,1-.74.55.6.6,0,0,1-.59-.62c0-1.69,0-3.38,0-5.08a.59.59,0,0,1,.43-.61,1,1,0,0,1,1.09.33l2.13,2.8a1.92,1.92,0,0,0,.54.58c0-1,0-2,0-3,0-.37.1-.68.5-.79a.66.66,0,0,1,.86.68c0,1.64,0,3.29,0,4.94a.67.67,0,0,1-.47.67.77.77,0,0,1-.91-.27c-.41-.51-.8-1-1.2-1.55l-1.5-2Z"/><path id="_Path_12" data-name="&lt;Path&gt;" class="cls-2" d="M61.56,65c0-.74,0-1.49,0-2.23s.24-.92.94-.92h3c.45,0,.8.15.81.61s-.33.64-.78.63c-.72,0-1.45,0-2.17,0-.52,0-.46.29-.44.6s-.14.71.44.67,1.18,0,1.76,0,.79.17.79.64-.38.62-.81.62c-.58,0-1.17,0-1.76,0s-.41.4-.42.69-.11.65.43.62c.72,0,1.44,0,2.16,0s.87.24.84.65-.39.6-.81.6c-1,0-2.07,0-3.11,0-.7,0-.9-.23-.91-1S61.56,65.69,61.56,65Z"/><path id="_Path_13" data-name="&lt;Path&gt;" class="cls-2" d="M96.2,64.93c0-.74,0-1.48,0-2.23s.25-.88.91-.88h3c.56,0,.89.24.85.63s-.38.61-.82.6-1.08,0-1.62,0c-1.06,0-1-.13-1,.61s-.06.63,1,.64c.41,0,.82,0,1.22,0s.79.17.78.65-.38.61-.81.61c-.58,0-1.17,0-1.75,0s-.44.38-.44.68-.11.66.42.63,1.26,0,1.89,0h.48c.37,0,.66.22.66.63s-.27.6-.66.61H96.93c-.54,0-.73-.37-.73-.86Z"/><path id="_Path_14" data-name="&lt;Path&gt;" class="cls-2" d="M60.06,65c0,.77,0,1.54,0,2.3,0,.53-.27.83-.69.83s-.67-.32-.68-.84,0-.9,0-1.35c0-.29-.08-.39-.38-.38-.61,0-1.22,0-1.82,0-.26,0-.37.09-.36.35,0,.48,0,1,0,1.42a.69.69,0,0,1-.66.79c-.4,0-.71-.29-.72-.79q0-2.4,0-4.8c0-.53.28-.81.72-.78s.66.32.66.77,0,.9,0,1.35.11.39.4.39c.6,0,1.21,0,1.82,0,.27,0,.34-.11.34-.36,0-.47,0-1,0-1.42a.65.65,0,0,1,.7-.73c.47,0,.67.3.67.75Z"/><path id="_Path_15" data-name="&lt;Path&gt;" class="cls-2" d="M110,68.18a4,4,0,0,1-2.11-.61c-.44-.28-.58-.69-.33-1a.67.67,0,0,1,1-.11,2.48,2.48,0,0,0,1.64.5c.36,0,.7-.13.75-.54s-.27-.54-.57-.64c-.49-.17-1-.28-1.48-.45a1.65,1.65,0,0,1-1.27-1.84,1.82,1.82,0,0,1,1.51-1.67,3.42,3.42,0,0,1,2.54.4.66.66,0,0,1,.35.95.65.65,0,0,1-1,.18,2.55,2.55,0,0,0-1.28-.38c-.34,0-.71.07-.78.49s.26.55.56.65.87.25,1.29.4c1.15.39,1.62,1,1.47,2a2,2,0,0,1-2,1.66Z"/><path id="_Path_16" data-name="&lt;Path&gt;" class="cls-2" d="M173.43,68.17a3.83,3.83,0,0,1-2.12-.56c-.52-.31-.66-.68-.42-1s.58-.39,1.07-.09a2.52,2.52,0,0,0,1.59.47c.34,0,.69-.09.75-.52s-.25-.56-.55-.66c-.49-.17-1-.28-1.48-.45A1.61,1.61,0,0,1,171,63.49a1.78,1.78,0,0,1,1.49-1.68,3.52,3.52,0,0,1,2.54.39c.36.2.57.47.38.88s-.57.47-1,.27a2.62,2.62,0,0,0-1.21-.39c-.36,0-.76,0-.85.48s.28.57.61.68.86.25,1.29.39c1.08.38,1.52,1,1.41,1.94a1.92,1.92,0,0,1-1.87,1.72C173.7,68.18,173.56,68.17,173.43,68.17Z"/><path id="_Path_17" data-name="&lt;Path&gt;" class="cls-2" d="M104.44,68.19a3.93,3.93,0,0,1-2.22-.67c-.39-.27-.5-.67-.26-1a.62.62,0,0,1,1-.12,2.79,2.79,0,0,0,1.57.53c.38,0,.77-.06.87-.49s-.29-.61-.63-.72-1-.28-1.48-.46A1.64,1.64,0,0,1,102,63.55a1.82,1.82,0,0,1,1.39-1.71,3.38,3.38,0,0,1,2.67.37.66.66,0,0,1,.34.95.65.65,0,0,1-1,.18A2.55,2.55,0,0,0,104.2,63c-.33,0-.7,0-.76.5s.26.55.56.65c.45.15.91.26,1.36.41a1.69,1.69,0,0,1,1.38,2A1.88,1.88,0,0,1,105,68.15C104.79,68.18,104.59,68.18,104.44,68.19Z"/><path id="_Path_18" data-name="&lt;Path&gt;" class="cls-2" d="M90.34,64.94c0-.77,0-1.53,0-2.3,0-.59.24-.82.82-.82,1.09,0,2.17,0,3.25,0,.5,0,.79.26.75.66s-.34.59-.75.59c-.72,0-1.45,0-2.17,0-.41,0-.55.1-.53.53,0,1-.08.79.83.81H94c.43,0,.72.2.73.63s-.28.63-.71.63-1.13,0-1.69,0-.7.18-.65.69a6.8,6.8,0,0,1,0,1c0,.51-.31.84-.71.8a.69.69,0,0,1-.67-.78Z"/><path id="_Path_19" data-name="&lt;Path&gt;" class="cls-2" d="M50.42,65.43c0-.63,0-1.26,0-1.89,0-.37-.12-.49-.46-.46a5.17,5.17,0,0,1-.68,0c-.57,0-.87-.25-.83-.66s.37-.63.82-.62h3.79a.61.61,0,0,1,.68.66.59.59,0,0,1-.67.6H53c-.38,0-.87-.17-1.11.09s-.09.81-.1,1.23c0,1,0,1.9,0,2.85,0,.58-.25.9-.68.9s-.68-.32-.69-.9Z"/><path id="_Path_20" data-name="&lt;Path&gt;" class="cls-2" d="M139.54,64.49c0,.65,0,1.31,0,2,0,.29.09.39.39.38q1,0,1.95,0c.56,0,.87.25.84.65s-.38.62-.81.62c-1,0-1.93,0-2.9,0-.63,0-.86-.23-.86-.86q0-2.3,0-4.59c0-.58.26-.87.71-.86s.67.29.68.89S139.54,63.88,139.54,64.49Z"/><path id="_Path_21" data-name="&lt;Path&gt;" class="cls-2" d="M115,64.93c0,.79,0,1.58,0,2.37,0,.47-.16.8-.66.85s-.72-.31-.72-.86c0-1.56,0-3.11,0-4.67,0-.57.28-.88.73-.84s.66.39.65.85Z"/><path id="_Path_22" data-name="&lt;Path&gt;" class="cls-2" d="M155.61,65c0,.78,0,1.57,0,2.36,0,.51-.3.85-.71.8a.7.7,0,0,1-.66-.78c0-1.6,0-3.21,0-4.81,0-.53.27-.81.71-.78s.66.32.66.77C155.6,63.36,155.61,64.17,155.61,65Z"/><path id="_Compound_Path_3" data-name="&lt;Compound Path&gt;" class="cls-2" d="M87.5,38.4c0-4.65,0-9.29,0-13.94,0-.49-.13-.65-.63-.69a22.27,22.27,0,0,0-4.32,0c-1,.1-.83.06-.83.95,0,2.42,0,4.83,0,7.24,0,.43-.08.54-.53.44a11.15,11.15,0,0,0-3.16-.2,9.91,9.91,0,0,0-7.45,3.57c-3,3.66-3.37,7.86-1.91,12.18C70,52,73.3,53.72,77.33,54.08a27,27,0,0,0,9.51-.9c.55-.15.68-.38.67-.92C87.49,47.64,87.5,43,87.5,38.4ZM81.24,49.2a8.53,8.53,0,0,1-4.14-.13A4.5,4.5,0,0,1,74,45.16a10.28,10.28,0,0,1,.28-4.74,5.11,5.11,0,0,1,6.1-3.73c1.32.2,1.32.2,1.32,1.54V43c0,1.84,0,3.69,0,5.54C81.74,49,81.62,49.13,81.24,49.2Z"/><path id="_Compound_Path_4" data-name="&lt;Compound Path&gt;" class="cls-2" d="M119.7,61.7a3.25,3.25,0,0,0-3.37,3.22,3.18,3.18,0,0,0,3.29,3.27,3.25,3.25,0,1,0,.08-6.49Zm-.07,5.23a1.91,1.91,0,0,1-1.84-2,1.84,1.84,0,0,1,1.9-1.92,2,2,0,0,1-.06,3.93Z"/><path id="_Compound_Path_5" data-name="&lt;Compound Path&gt;" class="cls-2" d="M85.85,61.7A3.24,3.24,0,0,0,82.45,65a3.18,3.18,0,0,0,3.26,3.23,3.25,3.25,0,1,0,.14-6.49Zm0,5.23a2,2,0,0,1-1.92-2,1.9,1.9,0,0,1,1.88-2,1.87,1.87,0,0,1,1.9,2A1.9,1.9,0,0,1,85.8,66.93Z"/><path id="_Compound_Path_6" data-name="&lt;Compound Path&gt;" class="cls-2" d="M80.5,66.15c-.17-.2-.23-.32,0-.51a2.07,2.07,0,0,0,.85-2.42,2,2,0,0,0-2-1.39c-.79,0-1.58,0-2.37,0-.6,0-.8.21-.81.82s0,1.53,0,2.29h0v2.5a.66.66,0,0,0,.65.72.7.7,0,0,0,.72-.72c0-.34,0-.68,0-1,0-.12,0-.3.16-.3.46,0,.93-.14,1.26.39a10.92,10.92,0,0,0,1.09,1.37.68.68,0,0,0,1,.12.62.62,0,0,0,.06-.95C81,66.73,80.75,66.44,80.5,66.15Zm-1.19-1.33a7.32,7.32,0,0,1-.81,0c-.87,0-.87,0-.87-.89a1.22,1.22,0,0,0,0-.27c-.1-.55.15-.71.66-.65a9.73,9.73,0,0,1,1.07.06.82.82,0,0,1,.71.91A.8.8,0,0,1,79.31,64.82Z"/><path id="_Compound_Path_7" data-name="&lt;Compound Path&gt;" class="cls-2" d="M167.61,61.92a6.94,6.94,0,0,0-1.47-.11h-.95c-.71,0-.93.22-.93.92,0,1.51,0,3,0,4.52,0,.61.2.83.8.84a20.83,20.83,0,0,0,2.09,0,3.11,3.11,0,0,0,.46-6.13Zm-.89,4.91c-1.09,0-1.09,0-1.09-1.09v-.81c0-.49,0-1,0-1.48,0-.28.09-.42.39-.39s.54,0,.81,0a1.82,1.82,0,0,1,1.77,2A1.77,1.77,0,0,1,166.72,66.83Z"/><path id="_Compound_Path_8" data-name="&lt;Compound Path&gt;" class="cls-2" d="M73,61.82c-.61,0-1.22,0-1.83,0s-.89.19-.9.88,0,1.49,0,2.23h0c0,.86,0,1.71,0,2.57a.62.62,0,0,0,.64.65.67.67,0,0,0,.72-.65,2.69,2.69,0,0,0,0-.75c0-.39.07-.58.51-.54a4.88,4.88,0,0,0,1,0A2.18,2.18,0,0,0,73,61.82ZM72.3,65c-.64,0-.64,0-.64-1s-.12-.92.65-.92c1,0,1.5.28,1.52.93S73.37,65,72.3,65Z"/><path id="_Compound_Path_9" data-name="&lt;Compound Path&gt;" class="cls-2" d="M137,67.21c-.73-1.66-1.47-3.33-2.22-5a.83.83,0,0,0-.87-.51.93.93,0,0,0-.82.61c-.7,1.61-1.42,3.21-2.13,4.81-.18.41-.14.77.3,1a.61.61,0,0,0,.89-.45c.21-.92.8-1.07,1.59-1a1.41,1.41,0,0,0,.41,0c.78-.11,1.42,0,1.58.94A.79.79,0,0,0,136,68a.6.6,0,0,0,.69.07.64.64,0,0,0,.35-.65A.82.82,0,0,0,137,67.21Zm-3.89-1.79c.26-.63.52-1.24.84-2,.32.75.56,1.35.84,2Z"/></g></g></g></svg>