<svg width="190" height="72" viewBox="0 0 190 72" fill="none" xmlns="http://www.w3.org/2000/svg">
<g clip-path="url(#clip0)">
<path fill-rule="evenodd" clip-rule="evenodd" d="M35.3233 13.568L37.3873 11.15C37.2681 11.1252 37.1646 11.1015 37.0717 11.0803L37.0716 11.0803C36.888 11.0383 36.7453 11.0057 36.6025 10.9916C34.9685 10.8237 33.3509 10.5271 31.7652 10.1047C29.0618 9.50455 26.5397 8.28937 24.4017 6.55697C22.446 4.86694 21.1816 2.53691 20.8436 0C20.8172 0.0517331 20.7909 0.0911448 20.769 0.123985L20.7689 0.123995L20.7689 0.124C20.7371 0.171583 20.7146 0.205369 20.7146 0.242851C19.6542 3.89498 19.358 7.72026 19.8438 11.4879C20.1126 13.6619 20.9734 15.7245 22.3355 17.4582C23.6977 19.192 25.5107 20.5327 27.5836 21.3392C28.4724 21.7238 28.4759 21.7195 29.0807 20.9943L29.11 20.9591C31.1811 18.4813 33.2522 16.0176 35.3233 13.568ZM177.219 57.1439C174.616 57.2037 172.027 56.7625 169.597 55.8451C169.07 55.6551 168.984 55.4333 169.081 54.9054C169.353 53.502 169.712 52.1162 170.156 50.7558C170.296 50.3229 170.457 50.2701 170.866 50.4285C173.127 51.3674 175.572 51.8002 178.025 51.6956C178.996 51.6604 179.953 51.4566 180.852 51.0937C181.472 50.8752 182.017 50.4883 182.422 49.9781C182.827 49.4678 183.077 48.8552 183.142 48.2112C183.269 47.5146 183.186 46.7968 182.903 46.1459C182.621 45.495 182.15 44.9394 181.551 44.5473C180.559 43.9493 179.498 43.4707 178.39 43.1219C176.741 42.5688 175.138 41.891 173.596 41.0946C172.473 40.5042 171.533 39.6281 170.873 38.5582C170.213 37.4882 169.857 36.2637 169.844 35.0128C169.64 33.1353 170.015 31.241 170.919 29.575C171.555 28.5265 172.415 27.6259 173.44 26.935C174.464 26.2442 175.629 25.7796 176.853 25.5733C180.707 24.8584 184.687 25.2019 188.355 26.5658C188.603 26.6502 188.775 26.7664 188.732 27.0726C188.527 28.5288 188.119 29.9502 187.517 31.2961C187.366 31.6537 187.134 31.543 186.919 31.4401C186.874 31.4184 186.829 31.3971 186.786 31.3806C184.814 30.572 182.687 30.1937 180.551 30.2719C179.724 30.2625 178.903 30.4095 178.132 30.7048C175.982 31.5601 175.982 34.4954 177.057 35.6252C177.561 36.1408 178.169 36.5472 178.842 36.8183C179.701 37.1835 180.581 37.5165 181.46 37.8489C182.716 38.3239 183.969 38.7977 185.152 39.363C186.597 39.9747 187.822 40.9978 188.669 42.3003C189.516 43.6027 189.946 45.1247 189.903 46.6696C190.119 49.1349 189.348 51.5857 187.753 53.5011C186.148 55.2329 184.012 56.4042 181.669 56.8377C180.204 57.1222 178.709 57.2251 177.219 57.1439ZM142.239 56.6265C140.004 56.9216 137.74 56.9429 135.499 56.6898C135.161 56.6898 135.032 56.4451 134.909 56.2094C134.887 56.1682 134.866 56.1273 134.844 56.088C134.571 55.6146 134.298 55.1408 134.025 54.6667L134.024 54.6654C132.88 52.6764 131.733 50.6832 130.544 48.6969C130.135 47.9852 129.729 47.2721 129.323 46.5587L129.32 46.5529L129.319 46.5508L129.318 46.5501C128.594 45.2765 127.868 44.0017 127.125 42.7312C126.9 42.3511 126.943 42.1821 127.351 41.9921C128.624 41.4616 129.82 40.7694 130.909 39.9331C131.919 39.1489 132.63 38.0536 132.928 36.8239C133.227 35.5942 133.095 34.3016 132.554 33.1544C132.239 32.4792 131.756 31.8929 131.149 31.45C130.542 31.007 129.831 30.7217 129.082 30.6203C128.176 30.4409 127.248 30.3982 126.33 30.4936C125.835 30.5464 125.653 30.7259 125.663 31.2539V42.2561V55.9824C125.663 56.5315 125.567 56.7638 124.943 56.8166C123.209 56.9802 121.463 56.9802 119.73 56.8166C119.343 56.8166 119.214 56.6371 119.246 56.2886C119.257 56.1692 119.257 56.049 119.246 55.9296V26.6397C119.246 26.2474 119.246 26.052 119.342 25.9401C119.438 25.8291 119.629 25.8 120.009 25.7422C122.887 25.324 125.801 25.2002 128.706 25.3726C131.139 25.4264 133.519 26.0799 135.628 27.2732C136.807 27.9427 137.8 28.8875 138.518 30.0239C139.236 31.1603 139.658 32.4532 139.745 33.788C139.904 35.0643 139.803 36.3589 139.449 37.5968C139.094 38.8347 138.494 39.9912 137.681 40.9996C136.97 41.8777 136.099 42.6187 135.112 43.1852C134.682 43.4386 134.575 43.6287 134.865 44.125C136.598 47.0336 138.303 49.9587 140.009 52.8845L140.009 52.8849L140.01 52.8858L140.01 52.8873L140.015 52.8958L140.018 52.9008L140.019 52.9022L140.02 52.9037L140.021 52.9051L140.022 52.9066L140.023 52.908C140.671 54.021 141.32 55.1341 141.971 56.2464C142.074 56.3174 142.128 56.4177 142.227 56.6034L142.239 56.6265ZM61.273 0C61.6545 0.952519 61.9075 1.94999 62.0254 2.967C62.4479 5.09433 62.6031 7.26451 62.4877 9.42895C62.4243 12.2795 61.4587 15.04 59.725 17.3269C58.2335 19.1586 56.2593 20.5537 54.017 21.3603C53.9043 21.426 53.7697 21.4451 53.6428 21.4135C53.5158 21.3818 53.4068 21.3019 53.3397 21.1914L46.1912 12.7444L44.7078 11.0022C45.1105 10.9392 45.5013 10.8808 45.8843 10.8237L45.8844 10.8236C46.6567 10.7083 47.3968 10.5978 48.1369 10.4637C50.3714 10.0931 52.5423 9.41783 54.5867 8.45755C56.328 7.70333 57.851 6.53536 59.0182 5.05891C60.1854 3.58246 60.9603 1.84393 61.273 0ZM167.125 33.1122C167.92 35.2333 168.374 37.4634 168.468 39.7219C168.692 42.711 168.33 45.7144 167.404 48.5701C166.923 50.2043 166.09 51.7182 164.963 53.0096C163.836 54.3009 162.439 55.3399 160.868 56.0563C159.412 56.6997 157.842 57.0583 156.246 57.1122C154.092 57.3029 151.922 57.0696 149.861 56.4258C148.15 55.8353 146.598 54.8693 145.324 53.6014C144.05 52.3335 143.087 50.797 142.508 49.1086C141.585 46.5763 141.141 43.8998 141.197 41.2107C141.103 37.9313 141.795 34.6761 143.218 31.7078C144.059 29.9828 145.333 28.4962 146.92 27.3879C148.507 26.2796 150.355 25.5861 152.29 25.3726C154.593 25.0016 156.95 25.1205 159.202 25.721C161.034 26.2306 162.711 27.1695 164.091 28.457C165.471 29.7445 166.512 31.342 167.125 33.1122ZM159.031 50.3414C159.701 49.7178 160.219 48.9535 160.546 48.1056C161.365 45.8778 161.726 43.513 161.61 41.1474C161.672 39.3125 161.469 37.4782 161.008 35.6991C160.674 34.0502 159.732 32.5802 158.364 31.5706C155.956 29.9762 151.409 30.0818 149.506 33.6823C148.716 35.2888 148.255 37.0326 148.152 38.8139C147.867 41.4662 148.038 44.1467 148.657 46.7435C148.993 48.4414 149.973 49.9508 151.398 50.967C152.164 51.4729 153.037 51.8022 153.951 51.9303C154.865 52.0585 155.796 51.9821 156.676 51.707C157.555 51.4318 158.36 50.965 159.031 50.3414ZM117.494 33.9991C117.377 32.6055 116.934 31.2572 116.199 30.0594C115.464 28.8616 114.458 27.8467 113.258 27.0937C111.276 25.9259 109.012 25.2989 106.701 25.2776C103.649 25.1404 100.592 25.2251 97.553 25.531C97.5114 25.5348 97.4718 25.5381 97.4343 25.5413L97.3693 25.5467C96.7344 25.599 96.7253 25.5997 96.7253 26.3757V56.1724C96.7253 56.4364 96.7253 56.6687 97.1016 56.7109C98.8618 56.8991 100.636 56.9239 102.401 56.7848C102.939 56.7848 103.154 56.542 103.143 55.9507V47.5882V47.0919C103.143 46.828 103.283 46.7013 103.562 46.7435C105.514 46.9344 107.485 46.8167 109.399 46.395C111.212 46.1646 112.916 45.415 114.298 44.2395C115.68 43.0641 116.68 41.5149 117.171 39.7853C117.697 37.9011 117.807 35.9284 117.494 33.9991ZM110.721 38.2226C110.413 39.1866 109.799 40.0289 108.97 40.627C108.141 41.2252 107.139 41.548 106.11 41.5486H103.788C103.293 41.5486 103.111 41.3797 103.121 40.8834V36.0264V31.0954C103.121 30.6837 103.229 30.5253 103.67 30.4725C105.016 30.279 106.388 30.3799 107.69 30.7681C108.366 30.9727 108.982 31.3322 109.489 31.8168C109.995 32.3015 110.377 32.8975 110.603 33.5556C111.157 35.0538 111.199 36.6886 110.721 38.212V38.2226ZM6.06054 40.7926C6.11235 39.093 6.16421 37.3921 6.2133 35.6885L6.32079 35.6463C6.42829 35.8891 6.52504 36.1214 6.62178 36.3643C6.91947 37.105 7.21746 37.8461 7.51555 38.5874C8.99355 42.2629 10.474 45.9445 11.9321 49.6261C11.9705 49.8166 12.073 49.9889 12.2231 50.1153C12.3733 50.2416 12.5623 50.3148 12.7598 50.3229C13.9393 50.4391 15.1277 50.4391 16.3072 50.3229C16.5566 50.3142 16.7963 50.2261 16.9902 50.0718C17.1841 49.9175 17.3217 49.7055 17.3822 49.4677C19.2598 45.1667 21.1446 40.8729 23.0365 36.586C23.0592 36.534 23.0778 36.4785 23.0965 36.4225C23.1575 36.2398 23.2203 36.0519 23.4342 35.9631C23.4535 36.4843 23.4809 37.0016 23.5083 37.5167V37.5167V37.5168V37.5168V37.5168V37.5169V37.5169V37.517V37.517V37.517V37.5171V37.5171V37.5171V37.5172V37.5172V37.5172V37.5173V37.5173V37.5173V37.5174C23.5574 38.4419 23.6062 39.3595 23.6062 40.2816C23.8069 45.5891 24.0004 50.8931 24.1867 56.1936C24.2082 56.6054 24.3587 56.7532 24.7242 56.7532C26.1983 56.9615 27.6926 56.9934 29.1745 56.8482L29.2033 56.8455H29.2033C29.7917 56.7887 30.0827 56.7607 30.2185 56.6008C30.3514 56.4444 30.3358 56.1619 30.305 55.6029L30.3033 55.5706L29.4648 38.1593C29.4153 37.1361 29.3651 36.1136 29.315 35.0915L29.3148 35.0886L29.3148 35.0882C29.1688 32.1137 29.023 29.142 28.895 26.1645C28.8735 25.795 28.7338 25.6577 28.3898 25.6577C26.7081 25.4255 25.0032 25.4042 23.316 25.5944C23.0913 25.6061 22.8761 25.6869 22.7006 25.8251C22.5251 25.9634 22.3982 26.1523 22.3378 26.3652C20.0732 31.8135 17.7942 37.2583 15.501 42.6995C15.4804 42.7475 15.4648 42.7997 15.4489 42.8527C15.3984 43.0212 15.3456 43.1974 15.1248 43.2697L14.9313 42.8051C12.6953 37.3498 10.4702 31.8803 8.25573 26.3968C8.20795 26.1832 8.08894 25.9914 7.91758 25.8518C7.74622 25.7122 7.53231 25.6327 7.30976 25.6261C5.48145 25.4149 3.63425 25.4149 1.80594 25.6261C1.35446 25.6894 1.19321 25.8267 1.19321 26.2701C1.12871 28.2059 1.0451 30.1417 0.961496 32.0774C0.919692 33.0453 0.877888 34.0132 0.838472 34.9811C0.573314 42.0766 0.293824 49.1439 0 56.183C0 56.5103 0 56.6793 0.419236 56.7532C1.97937 56.9907 3.56744 56.9907 5.12758 56.7532C5.52532 56.6898 5.62207 56.542 5.62207 56.1725C5.69453 53.2365 5.78225 50.2181 5.86595 47.3383L5.91231 45.7404C5.95997 44.0916 6.01023 42.4427 6.06054 40.7926ZM33.2379 59.1289C33.3647 57.8308 33.5838 56.5431 33.8936 55.275C35.1406 48.8236 36.3123 42.3617 37.355 35.8786C37.4294 35.4223 37.5046 34.9638 37.5801 34.5036C38.0287 31.769 38.4873 28.9739 38.8277 26.2174C38.857 26.069 38.8498 25.916 38.8068 25.7709C38.7638 25.6258 38.6862 25.4929 38.5805 25.3832C37.8407 24.5195 37.1281 23.6334 36.4162 22.7483L36.4162 22.7482L36.4161 22.7482L36.4161 22.7482L36.4161 22.7481L36.416 22.7481L36.416 22.748L36.416 22.748L36.4159 22.748L36.4159 22.7479L36.4159 22.7479L36.4158 22.7478L36.4158 22.7478L36.4158 22.7478L36.4157 22.7477L36.4157 22.7477L36.4157 22.7476L36.4156 22.7476L36.4156 22.7476L36.4156 22.7475L36.4155 22.7475L36.4155 22.7474L36.4155 22.7474L36.4154 22.7474C36.0311 22.2695 35.6469 21.7918 35.2588 21.3181C34.7812 20.8172 34.5155 20.1566 34.5155 19.4703C34.5155 18.784 34.7812 18.1235 35.2588 17.6226C36.5918 15.7924 37.9606 14.0044 39.3652 12.2587C39.5129 12.068 39.6785 11.8912 39.8597 11.7308C40.0062 11.5347 40.2001 11.3774 40.4238 11.2732C40.6475 11.1689 40.8941 11.1209 41.1414 11.1335C41.3887 11.1461 41.629 11.2188 41.8406 11.3452C42.0522 11.4715 42.2285 11.6476 42.3536 11.8575C43.8693 13.7369 45.3635 15.6481 46.8147 17.5803C47.2063 18.0969 47.4059 18.7296 47.3805 19.3731C47.3551 20.0167 47.1061 20.6323 46.675 21.1175C45.5857 22.5253 44.4892 23.9332 43.3856 25.341C43.2686 25.4743 43.1837 25.6319 43.1371 25.8019C43.0906 25.9718 43.0837 26.15 43.1168 26.323C43.8156 32.2464 44.7185 38.1487 45.729 44.0405C46.5009 48.5895 47.3872 53.1079 48.2753 57.6357L48.3197 57.8619C48.5107 58.6894 48.5134 59.5481 48.3275 60.3767C48.1417 61.2053 47.772 61.9835 47.2447 62.6556C45.8795 64.4189 44.4713 66.1399 42.9448 67.7765C42.8158 67.9138 42.6761 68.0511 42.5364 68.1778C42.3162 68.4214 42.0432 68.6134 41.7375 68.7395C41.4317 68.8657 41.101 68.9227 40.7698 68.9065C40.4385 68.8903 40.1153 68.8012 39.8238 68.6458C39.5323 68.4905 39.2801 68.2728 39.0857 68.0088C38.172 67.0269 37.2905 66.0027 36.4198 64.9785C35.7318 64.1443 35.0869 63.3524 34.3989 62.5077C33.6421 61.5386 33.2338 60.3503 33.2379 59.1289ZM57.9521 37.091L57.9521 37.0911L57.952 37.0911L57.9519 37.0913C57.8846 37.1763 57.8032 37.279 57.6718 37.4308C57.6046 37.1078 57.5503 36.8001 57.4982 36.5047L57.4982 36.5046C57.4004 35.95 57.3101 35.4385 57.1559 34.9495C57.1274 34.7865 57.0442 34.6376 56.9195 34.5266C56.7948 34.4156 56.6358 34.3489 56.4679 34.3371C55.1003 34.1258 53.7076 34.1258 52.34 34.3371C51.9745 34.3898 51.8455 34.5482 51.8455 34.9389V56.2253C51.8455 56.6371 51.996 56.7849 52.3615 56.7849C54.0244 56.9961 55.708 56.9961 57.3709 56.7849C57.9083 56.7321 58.1126 56.5632 58.1126 55.9613V45.4026C58.0909 44.551 58.1484 43.6992 58.2846 42.858C58.3369 42.3389 58.4932 41.8351 58.7444 41.3755C58.9956 40.9159 59.3368 40.5096 59.7483 40.18C60.1599 39.8503 60.6337 39.6038 61.1425 39.4545C61.6514 39.3052 62.1852 39.2562 62.7134 39.3102C63.2884 39.3076 63.8487 39.4885 64.31 39.8255C64.7714 40.1625 65.1089 40.6375 65.2718 41.1791C65.5688 42.1794 65.6924 43.2217 65.6373 44.2623V56.1197C65.6373 56.5632 65.7556 56.7216 66.2178 56.7849C67.8781 56.9802 69.5561 56.9802 71.2164 56.7849C71.7539 56.7216 71.9151 56.5421 71.9151 55.993V42.7735C71.9316 41.6546 71.8344 40.5369 71.6249 39.4369C71.4955 38.3419 71.0635 37.3025 70.3757 36.4315C69.6878 35.5604 68.7704 34.8909 67.7228 34.4954C64.2399 33.2389 60.4883 33.788 58.0266 36.9979C58.0027 37.0272 57.9788 37.0574 57.9528 37.0902L57.9524 37.0907L57.9521 37.091ZM120.611 61.4412H187.818C187.986 61.4518 188.155 61.4518 188.323 61.4412C188.85 61.3568 188.893 61.6419 188.914 62.0642C188.936 62.4865 188.721 62.6449 188.312 62.5921H52.9635C52.512 62.5921 52.2648 62.5921 52.2648 62.0114C52.2648 61.4409 52.5345 61.441 52.9516 61.4412L52.9743 61.4412H120.611ZM160.884 68.2265L160.739 68.4523C160.17 67.5759 159.632 66.7312 159.127 65.9076C159.037 65.6701 158.857 65.4758 158.625 65.3656C158.392 65.2554 158.125 65.2378 157.88 65.3164C157.364 65.4747 157.364 65.9288 157.364 66.3722V70.9442C157.364 71.6516 157.665 72 158.127 72C158.59 72 158.826 71.6305 158.826 70.9442V68.2306C159.085 68.44 159.304 68.6941 159.471 68.9802C160.546 70.7436 160.879 70.7119 161.954 68.9802C162.105 68.6478 162.333 68.3548 162.621 68.125V71.1448C162.608 71.2468 162.618 71.3503 162.65 71.4481C162.682 71.546 162.735 71.636 162.805 71.712C162.876 71.7881 162.962 71.8485 163.058 71.8891C163.154 71.9296 163.258 71.9495 163.362 71.9473C163.846 71.9578 164.104 71.6516 164.104 71.1659V66.2455C164.104 65.8232 164.093 65.4008 163.577 65.2741C163.356 65.2037 163.115 65.2153 162.901 65.3066C162.688 65.398 162.515 65.5629 162.416 65.7704C161.942 66.5761 161.431 67.373 160.884 68.2265ZM138.036 69.0858V66.3405C138.015 66.104 138.048 65.8658 138.133 65.6437C138.191 65.4985 138.299 65.3783 138.439 65.3048C138.579 65.2312 138.741 65.2091 138.896 65.2424C139.043 65.2509 139.182 65.3093 139.29 65.4075C139.398 65.5057 139.468 65.6377 139.487 65.7809C139.498 65.9462 139.498 66.1119 139.487 66.2772V70.8491C139.487 71.282 139.487 71.7255 138.971 71.905C138.455 72.0845 138.111 71.7571 137.821 71.377C137.105 70.3916 136.341 69.4096 135.532 68.4312C135.502 68.3926 135.474 68.3517 135.446 68.31L135.446 68.3098L135.446 68.3096C135.343 68.157 135.234 67.9944 134.973 67.9032V70.6168V71.3242C134.97 71.4942 134.9 71.6565 134.777 71.7767C134.655 71.8969 134.49 71.9656 134.317 71.9683C134.132 71.9862 133.947 71.932 133.802 71.8175C133.658 71.703 133.564 71.5372 133.543 71.3559C133.526 71.2368 133.526 71.116 133.543 70.9969V66.2033C133.543 65.802 133.607 65.4219 134.048 65.2847C134.256 65.2099 134.484 65.2045 134.696 65.2694C134.908 65.3343 135.092 65.4658 135.22 65.6437L137.499 68.6001C137.638 68.7796 137.789 68.9485 137.939 69.1175L138.036 69.0858ZM170.446 70.7963V67.9455L170.597 67.8082L172.209 69.92C172.639 70.5007 173.059 71.0181 173.499 71.5566C173.606 71.7046 173.761 71.8131 173.938 71.8648C174.116 71.9164 174.305 71.9083 174.478 71.8417C174.63 71.7951 174.762 71.7005 174.853 71.5725C174.944 71.4445 174.99 71.2904 174.983 71.1342V65.9182C174.992 65.8041 174.972 65.6896 174.926 65.5848C174.879 65.4799 174.807 65.3879 174.716 65.317C174.624 65.246 174.516 65.1982 174.402 65.1779C174.287 65.1575 174.169 65.1652 174.058 65.2002C173.628 65.3163 173.521 65.6437 173.521 66.0343V69.202C173.286 69.0397 173.088 68.8311 172.94 68.5896L170.651 65.6331C170.515 65.4648 170.33 65.3413 170.12 65.279C169.911 65.2168 169.687 65.2188 169.479 65.2847C169.338 65.3232 169.215 65.4084 169.131 65.5258C169.047 65.6432 169.006 65.7855 169.017 65.9287V71.2926C169.014 71.3767 169.028 71.4605 169.058 71.5391C169.089 71.6177 169.135 71.6896 169.194 71.7505C169.253 71.8115 169.324 71.8602 169.402 71.894C169.481 71.9278 169.565 71.9459 169.651 71.9472C169.742 71.9607 169.835 71.9563 169.924 71.9344C170.014 71.9124 170.098 71.8734 170.172 71.8194C170.246 71.7654 170.308 71.6976 170.355 71.6199C170.402 71.5422 170.433 71.456 170.446 71.3665C170.468 71.177 170.468 70.9858 170.446 70.7963ZM66.1748 68.6318V66.2772C66.1748 65.4958 66.4328 65.3058 67.1853 65.3058H70.4102C70.8939 65.3058 71.2702 65.4642 71.2809 65.9499C71.2917 66.4356 70.9262 66.6256 70.4424 66.6151H68.1098C67.5894 66.6151 67.6093 66.8804 67.6319 67.1811L67.635 67.2234L67.6368 67.2486C67.641 67.3127 67.6377 67.3806 67.6345 67.4478V67.4479V67.448V67.4481V67.4482C67.6214 67.7239 67.6087 67.99 68.1098 67.956C68.5262 67.9278 68.9522 67.9373 69.3751 67.9467C69.5853 67.9514 69.7947 67.956 70.0017 67.956C70.6252 67.956 70.8509 68.1355 70.8509 68.6318C70.8509 69.128 70.4424 69.2864 69.9802 69.2864H68.0883C67.579 69.2864 67.6034 69.5587 67.6272 69.8246V69.8247V69.8248V69.8249V69.825C67.6331 69.8901 67.6389 69.9548 67.6368 70.015C67.6355 70.0523 67.6327 70.0908 67.63 70.1294C67.61 70.4078 67.5893 70.6974 68.099 70.6696H70.4209C71.1949 70.6696 71.3562 70.923 71.3239 71.3559C71.2917 71.7888 70.9047 71.9895 70.4532 71.9895H67.11C66.3576 71.9895 66.1426 71.7466 66.1318 70.9336C66.1258 70.4828 66.1398 70.0481 66.1534 69.6262V69.6259V69.6256V69.6253V69.6249V69.6246V69.6244V69.6241V69.6238V69.6236V69.6233V69.623V69.6227V69.6225V69.6223V69.622V69.6217V69.6214C66.1643 69.2841 66.1748 68.9548 66.1748 68.6318ZM103.412 66.2032V68.5578V71.0074C103.412 71.5248 103.616 71.9155 104.196 71.9155H107.83C108.249 71.9049 108.539 71.7043 108.539 71.2714C108.539 70.8385 108.227 70.6062 107.83 70.6062H107.314C107.088 70.6062 106.85 70.6027 106.613 70.5992C106.137 70.5921 105.662 70.5851 105.282 70.6062C104.796 70.6332 104.811 70.3607 104.825 70.0834C104.828 70.0356 104.831 69.9876 104.831 69.941C104.831 69.8896 104.827 69.8359 104.823 69.7821C104.802 69.5046 104.781 69.223 105.304 69.223H107.185C107.647 69.223 108.045 69.0857 108.055 68.5789C108.066 68.0721 107.647 67.8926 107.217 67.8926H105.905C105.758 67.8912 105.63 67.892 105.52 67.8927C105.15 67.8949 104.977 67.8959 104.898 67.8105C104.828 67.7363 104.829 67.5967 104.83 67.3358C104.83 67.2986 104.831 67.2591 104.831 67.2169C104.831 67.176 104.83 67.1376 104.83 67.1016V67.0997V67.098C104.829 66.8402 104.828 66.7044 104.896 66.6343C104.971 66.5563 105.131 66.5598 105.468 66.567L105.469 66.5671H105.469H105.469H105.47H105.47H105.471C105.591 66.5697 105.735 66.5728 105.905 66.5728C106.099 66.5728 106.304 66.5716 106.51 66.5704H106.511H106.511H106.511H106.511H106.511H106.511H106.511H106.511H106.511H106.512H106.512H106.512H106.512H106.512H106.512C106.922 66.5681 107.332 66.5657 107.647 66.5728C108.12 66.5833 108.485 66.351 108.528 65.9392C108.571 65.5275 108.217 65.274 107.615 65.274H104.39C103.68 65.274 103.412 65.4113 103.412 66.2032ZM64.5624 68.6318V71.0603C64.5624 71.62 64.2721 71.9367 63.8206 71.9367C63.3692 71.9367 63.1004 71.5988 63.0897 71.0498C63.0825 70.6839 63.0849 70.3836 63.0873 70.0834V70.0831C63.0885 69.9329 63.0897 69.7827 63.0897 69.6244C63.0897 69.3182 63.0037 69.2126 62.6812 69.2231H60.7247C60.4453 69.2231 60.327 69.3182 60.3378 69.5927V71.092C60.353 71.1936 60.3461 71.2971 60.3178 71.3958C60.2894 71.4946 60.2401 71.5864 60.1731 71.6651C60.1062 71.7439 60.023 71.8078 59.9291 71.8528C59.8352 71.8978 59.7327 71.9228 59.6283 71.9262C59.1983 71.9262 58.8651 71.62 58.8543 71.092V66.0238C58.8543 65.4642 59.1553 65.1686 59.6283 65.2002C60.1013 65.2319 60.3378 65.5381 60.3378 66.0133V67.4387C60.3378 67.8602 60.4308 67.8579 60.6695 67.852H60.6698L60.7124 67.8511C60.7301 67.8507 60.7486 67.8505 60.7677 67.8505H62.7242C63.0144 67.8505 63.0897 67.7343 63.0897 67.4704V65.971C63.0765 65.8695 63.0866 65.7663 63.1192 65.669C63.1519 65.5718 63.2063 65.483 63.2784 65.4091C63.3506 65.3352 63.4387 65.278 63.5362 65.2419C63.6337 65.2058 63.7383 65.1915 63.8421 65.2002C64.3474 65.2002 64.5624 65.517 64.5624 65.9921V68.6318ZM115.978 71.3453C116.658 71.7637 117.444 71.9868 118.246 71.9894L118.558 71.9789C119.07 71.9862 119.568 71.8136 119.962 71.4923C120.356 71.1709 120.621 70.7219 120.708 70.2261C120.869 69.1702 120.364 68.5262 119.128 68.1144C118.857 68.0193 118.528 67.9243 118.238 67.8407C118.045 67.7849 117.87 67.7342 117.741 67.692C117.418 67.5864 117.064 67.4492 117.139 67.0057C117.214 66.5622 117.612 66.4883 117.977 66.4883C118.464 66.4997 118.939 66.6381 119.353 66.8895C119.432 66.9574 119.526 67.007 119.627 67.0345C119.728 67.0621 119.834 67.0669 119.937 67.0486C120.041 67.0304 120.138 66.9895 120.223 66.9291C120.308 66.8686 120.378 66.7902 120.428 66.6995C120.48 66.6111 120.511 66.5126 120.52 66.4111C120.529 66.3095 120.515 66.2073 120.479 66.1116C120.443 66.016 120.386 65.9292 120.312 65.8575C120.239 65.7857 120.15 65.7308 120.052 65.6964C119.233 65.2121 118.253 65.0606 117.322 65.2741C116.889 65.3465 116.494 65.5598 116.199 65.8796C115.905 66.1994 115.728 66.6072 115.698 67.0374C115.636 67.4704 115.742 67.9106 115.995 68.2705C116.248 68.6304 116.629 68.8838 117.064 68.9802C117.327 69.0718 117.599 69.1469 117.872 69.2224L117.872 69.2225C118.134 69.2948 118.397 69.3675 118.655 69.4553C118.977 69.5609 119.321 69.6982 119.267 70.1311C119.214 70.564 118.848 70.7013 118.461 70.7013C117.828 70.7367 117.203 70.5496 116.698 70.1733C116.623 70.1056 116.533 70.0544 116.436 70.0233C116.339 69.9921 116.236 69.9817 116.134 69.9927C116.032 70.0037 115.934 70.0358 115.846 70.087C115.758 70.1382 115.682 70.2072 115.623 70.2895C115.354 70.6168 115.505 71.0497 115.978 71.3453ZM186.431 71.9789C185.629 72.0041 184.837 71.7986 184.152 71.3876C183.593 71.0603 183.443 70.6696 183.701 70.3317C183.959 69.9938 184.324 69.9199 184.851 70.2367C185.347 70.5867 185.95 70.7616 186.56 70.7329C186.926 70.7329 187.302 70.6379 187.366 70.1839C187.431 69.7299 187.098 69.5926 186.775 69.487C186.518 69.3993 186.256 69.3268 185.995 69.2546L185.994 69.2546L185.994 69.2545L185.994 69.2545L185.994 69.2544L185.994 69.2544L185.994 69.2543L185.993 69.2543L185.993 69.2543L185.993 69.2542L185.993 69.2542L185.993 69.2541L185.992 69.2541C185.719 69.1786 185.448 69.1035 185.184 69.0119C184.738 68.9249 184.345 68.669 184.089 68.2995C183.834 67.9301 183.737 67.4767 183.819 67.0374C183.838 66.606 184.007 66.1941 184.299 65.8711C184.591 65.548 184.987 65.3335 185.421 65.2635C186.351 65.0579 187.326 65.205 188.151 65.6753C188.538 65.8865 188.764 66.1716 188.56 66.6045C188.355 67.0374 187.947 67.1007 187.485 66.8895C187.092 66.6495 186.645 66.508 186.184 66.4778C185.797 66.4778 185.367 66.4778 185.27 66.9846C185.179 67.4622 185.527 67.5741 185.864 67.6826L185.926 67.7026C186.101 67.7598 186.327 67.8246 186.568 67.8934C186.816 67.9643 187.078 68.0393 187.313 68.1144C188.474 68.5156 188.947 69.1702 188.828 70.1628C188.776 70.6541 188.543 71.1097 188.173 71.4441C187.803 71.7785 187.321 71.9687 186.818 71.9789C186.754 71.9858 186.668 71.9836 186.576 71.9813L186.519 71.98L186.473 71.9792L186.431 71.9789ZM109.883 71.2926C110.588 71.7588 111.419 72.0053 112.269 72C112.316 71.9969 112.368 71.9948 112.423 71.9924C112.557 71.9868 112.711 71.9802 112.871 71.9578C113.331 71.9294 113.767 71.7474 114.108 71.442C114.448 71.1367 114.672 70.7263 114.742 70.2789C114.79 70.0442 114.789 69.8025 114.74 69.568C114.691 69.3335 114.594 69.1111 114.456 68.9141C114.317 68.717 114.14 68.5494 113.934 68.4211C113.729 68.2927 113.499 68.2064 113.258 68.1672C113.016 68.088 112.772 68.0194 112.527 67.9507L112.527 67.9507L112.527 67.9506L112.527 67.9506L112.527 67.9505L112.527 67.9505L112.526 67.9504L112.526 67.9504L112.526 67.9504L112.526 67.9503L112.526 67.9503L112.526 67.9502C112.282 67.8818 112.038 67.8133 111.796 67.7343C111.767 67.7248 111.738 67.7157 111.709 67.7067C111.415 67.6154 111.136 67.5284 111.194 67.048C111.259 66.52 111.657 66.52 112.011 66.52C112.465 66.533 112.908 66.6563 113.301 66.879C113.38 66.9469 113.474 66.9965 113.575 67.024C113.676 67.0516 113.782 67.0564 113.885 67.0381C113.989 67.0199 114.086 66.979 114.171 66.9185C114.256 66.8581 114.326 66.7796 114.376 66.689C114.428 66.6012 114.46 66.5034 114.469 66.4024C114.479 66.3014 114.466 66.1995 114.431 66.104C114.396 66.0085 114.34 65.9216 114.268 65.8493C114.195 65.7771 114.108 65.7213 114.011 65.6859C113.585 65.4309 113.111 65.2646 112.617 65.1974C112.123 65.1301 111.621 65.1635 111.141 65.2952C110.725 65.3943 110.354 65.6245 110.084 65.9506C109.814 66.2767 109.66 66.6807 109.646 67.1008C109.619 67.515 109.744 67.9252 109.998 68.2566C110.253 68.588 110.62 68.8186 111.033 68.9063C111.371 69.0307 111.791 69.1506 112.144 69.2511C112.33 69.3042 112.498 69.3519 112.624 69.392C112.99 69.5081 113.409 69.6982 113.301 70.1522C113.194 70.6063 112.775 70.6696 112.366 70.6696C111.759 70.6553 111.17 70.4601 110.678 70.11C110.607 70.0334 110.518 69.9747 110.419 69.9386C110.319 69.9025 110.213 69.8901 110.108 69.9025C110.003 69.9149 109.902 69.9517 109.814 70.0098C109.727 70.0679 109.654 70.1457 109.603 70.2367C109.345 70.5851 109.464 71.0075 109.883 71.2926ZM97.1123 68.5684V66.1399C97.1123 65.5169 97.3703 65.274 97.9938 65.274H101.487C102.025 65.274 102.337 65.5486 102.294 65.9709C102.251 66.3933 101.928 66.5939 101.487 66.5939H99.1547C98.714 66.5939 98.5635 66.6995 98.585 67.1535C98.585 67.2403 98.5844 67.3185 98.5839 67.3889V67.3889C98.5813 67.737 98.5801 67.8945 98.6577 67.9637C98.7219 68.0208 98.8398 68.0177 99.0551 68.0118H99.0552H99.0553H99.0555H99.0557H99.0559H99.0562H99.0564H99.0567H99.057H99.0573H99.0576C99.1694 68.0088 99.3072 68.0051 99.4772 68.0088H101.047C101.509 68.0088 101.821 68.2199 101.831 68.674C101.842 69.128 101.53 69.3392 101.068 69.3392H99.2515C98.6495 69.3392 98.499 69.5292 98.5528 70.0677C98.5791 70.4192 98.5791 70.7721 98.5528 71.1236C98.5528 71.6621 98.2195 72.0105 97.7895 71.9683C97.6852 71.9662 97.5826 71.9425 97.4882 71.8988C97.3939 71.8551 97.31 71.7923 97.242 71.7146C97.1741 71.6369 97.1236 71.546 97.0938 71.4478C97.064 71.3496 97.0557 71.2463 97.0693 71.1447L97.1123 68.5684ZM54.1997 67.0902V69.0858V70.9864C54.2105 71.5988 54.4792 71.9367 54.9414 71.9367C55.4037 71.9367 55.6724 71.5988 55.6724 70.9864V67.9771C55.6755 67.8487 55.6642 67.7087 55.6528 67.5681L55.6528 67.568V67.5679C55.6249 67.2229 55.5967 66.8734 55.7799 66.6784C55.9652 66.4812 56.2892 66.5183 56.6085 66.5548L56.6087 66.5548C56.7338 66.5691 56.8581 66.5834 56.9731 66.5834H57.0484C57.1395 66.5956 57.2322 66.5883 57.3202 66.5619C57.4081 66.5354 57.4892 66.4905 57.5577 66.4303C57.6262 66.37 57.6806 66.2958 57.717 66.2129C57.7534 66.1299 57.771 66.0402 57.7686 65.9498C57.7773 65.8543 57.7642 65.7581 57.7302 65.6683C57.6962 65.5784 57.6422 65.4971 57.5722 65.4303C57.5021 65.3635 57.4178 65.313 57.3253 65.2823C57.2328 65.2516 57.1346 65.2416 57.0376 65.253H52.9635C52.4798 65.2424 52.125 65.4747 52.082 65.9076C52.039 66.3405 52.3615 66.6045 52.9743 66.6045C53.2177 66.6202 53.4618 66.6202 53.7052 66.6045C54.0707 66.5728 54.1997 66.6995 54.1997 67.0902ZM150.001 68.0932V70.205C150.001 70.5112 150.097 70.6168 150.42 70.6062H152.516C153.118 70.6062 153.451 70.8702 153.419 71.2925C153.387 71.7149 153.01 71.9472 152.548 71.9472H149.431C148.754 71.9472 148.506 71.7043 148.506 71.0391V66.1927C148.506 65.5803 148.786 65.2741 149.27 65.2846C149.753 65.2952 149.99 65.5908 150.001 66.2243C150.008 66.6443 150.005 67.0458 150.003 67.4563V67.4571V67.4579V67.4587C150.002 67.6667 150.001 67.877 150.001 68.0932ZM123.621 71.0603V68.5578V66.1293C123.632 65.6436 123.406 65.2741 122.922 65.2318C122.438 65.1896 122.137 65.5169 122.137 66.1188V71.0497C122.137 71.6304 122.374 72.0105 122.911 71.9577C123.449 71.905 123.621 71.5565 123.621 71.0603ZM167.275 68.6318V71.1236C167.275 71.6621 166.953 72.0211 166.512 71.9683C166.409 71.9632 166.309 71.9375 166.216 71.8926C166.124 71.8478 166.042 71.7848 165.976 71.7076C165.909 71.6304 165.859 71.5406 165.83 71.4438C165.8 71.347 165.791 71.2452 165.803 71.1448V66.066C165.803 65.5064 166.093 65.2107 166.566 65.2424C167.039 65.2741 167.275 65.5803 167.275 66.0554C167.268 66.616 167.27 67.1812 167.273 67.7541V67.7544V67.7547V67.755V67.7553V67.7556V67.7559V67.7562C167.274 68.0459 167.275 68.3377 167.275 68.6318ZM94.0594 25.8267V40.5455C94.0594 41.7581 94.0587 42.9734 94.0581 44.1903C94.0561 47.8475 94.054 51.5197 94.0702 55.1799C94.0809 55.7501 93.9412 55.993 93.3499 56.1513C90.0269 57.0624 86.5651 57.3842 83.127 57.1016C78.7949 56.7215 75.2475 54.9054 73.8178 50.6291C72.2484 46.0677 72.6461 41.6331 75.871 37.7686C76.8513 36.6114 78.0742 35.6756 79.4563 35.0251C80.8384 34.3746 82.3471 34.0246 83.8795 33.9991C85.0163 33.9104 86.1601 33.9815 87.2764 34.2103C87.7601 34.3159 87.8461 34.1997 87.8461 33.7457V26.1012C87.8461 25.9641 87.8422 25.848 87.8389 25.7492C87.8308 25.507 87.8262 25.3693 87.8909 25.2845C87.9762 25.1725 88.182 25.1524 88.6592 25.1059L88.7383 25.0981C90.2826 24.9503 91.8379 24.9503 93.3822 25.0981C93.9197 25.1403 94.0594 25.3093 94.0594 25.8267ZM82.8798 51.8117C84.3292 52.2159 85.8577 52.2631 87.3301 51.949C87.7386 51.875 87.8676 51.7378 87.8246 51.2521V45.4025V40.366C87.8246 39.662 87.8246 39.3083 87.6498 39.1046C87.4733 38.8989 87.1186 38.8461 86.4057 38.74C85.0054 38.4237 83.5348 38.6589 82.309 39.3951C81.0832 40.1313 80.1998 41.31 79.8484 42.6784C79.3518 44.3007 79.2487 46.0147 79.5474 47.6832C79.6262 48.6175 79.9847 49.5081 80.5777 50.2427C81.1706 50.9773 81.9716 51.5232 82.8798 51.8117ZM128.673 65.1473C128.206 65.1304 127.741 65.2056 127.304 65.3684C126.867 65.5313 126.468 65.7785 126.131 66.0955C125.793 66.4125 125.523 66.7928 125.338 67.2139C125.152 67.635 125.055 68.0884 125.051 68.5472C125.037 69.0061 125.12 69.4627 125.293 69.889C125.466 70.3153 125.726 70.7022 126.058 71.0258C126.389 71.3494 126.785 71.6028 127.22 71.7703C127.655 71.9379 128.12 72.016 128.587 72C129.061 72.0309 129.536 71.9667 129.984 71.8113C130.431 71.6559 130.842 71.4125 131.19 71.0961C131.539 70.7796 131.818 70.3967 132.011 69.9706C132.204 69.5446 132.307 69.0845 132.312 68.6182C132.318 68.152 132.227 67.6895 132.045 67.2589C131.863 66.8284 131.593 66.4388 131.253 66.114C130.912 65.7892 130.508 65.5359 130.064 65.3697C129.621 65.2035 129.148 65.1279 128.673 65.1473ZM128.598 70.6696C128.326 70.6601 128.059 70.5977 127.813 70.4862C127.566 70.3746 127.344 70.216 127.16 70.0195C126.976 69.8231 126.833 69.5928 126.741 69.3418C126.648 69.0909 126.607 68.8244 126.62 68.5578C126.608 68.2902 126.653 68.0231 126.751 67.7732C126.849 67.5233 126.998 67.2961 127.19 67.1057C127.382 66.9153 127.612 66.7659 127.865 66.667C128.119 66.568 128.39 66.5215 128.663 66.5305C129.153 66.6293 129.594 66.8932 129.907 67.2768C130.221 67.6604 130.388 68.1396 130.381 68.6316C130.373 69.1236 130.191 69.5975 129.865 69.9715C129.54 70.3455 129.092 70.5962 128.598 70.6801V70.6696ZM90.8847 65.363C91.3317 65.1975 91.8086 65.1241 92.2857 65.1474V65.1896C92.7593 65.1759 93.2308 65.2569 93.6716 65.4278C94.1123 65.5986 94.513 65.8558 94.8494 66.1836C95.1858 66.5113 95.4508 66.9029 95.6283 67.3344C95.8057 67.766 95.892 68.2284 95.8818 68.6937C95.8715 69.159 95.7651 69.6174 95.5688 70.041C95.3726 70.4646 95.0906 70.8446 94.7402 71.1578C94.3897 71.4711 93.9781 71.711 93.5303 71.863C93.0824 72.0151 92.6078 72.076 92.1352 72.0423C91.6746 72.0537 91.2163 71.9735 90.788 71.8066C90.3597 71.6397 89.9701 71.3894 89.6428 71.0708C89.3155 70.7523 89.0571 70.372 88.8832 69.9528C88.7093 69.5337 88.6234 69.0843 88.6308 68.6318C88.6214 68.1626 88.7103 67.6966 88.8921 67.2627C89.0738 66.8287 89.3445 66.4362 89.6873 66.1094C90.0301 65.7825 90.4377 65.5285 90.8847 65.363ZM92.2798 70.6694C91.7268 70.6461 91.2042 70.4143 90.8208 70.022C90.436 69.6283 90.2213 69.1036 90.2218 68.5579C90.2073 68.2874 90.2486 68.0169 90.3434 67.7626C90.4382 67.5083 90.5844 67.2755 90.7732 67.0782C90.962 66.8808 91.1896 66.7231 91.4421 66.6145C91.6947 66.5059 91.967 66.4486 92.2427 66.4461C92.5216 66.4411 92.7985 66.4931 93.0558 66.5988C93.3131 66.7045 93.5451 66.8617 93.7372 67.0603C93.9293 67.259 94.0773 67.4947 94.1716 67.7525C94.2659 68.0103 94.3046 68.2846 94.2851 68.5579C94.2998 68.831 94.2575 69.1041 94.1607 69.3605C94.064 69.617 93.9149 69.8513 93.7226 70.049C93.5303 70.2468 93.2989 70.4039 93.0426 70.5106C92.8009 70.6112 92.5419 70.665 92.2798 70.6694ZM86.5347 69.846C86.3519 69.6348 86.2874 69.5081 86.5347 69.3075C86.9572 69.0445 87.2772 68.6493 87.443 68.1857C87.6088 67.7221 87.6107 67.2171 87.4484 66.7523C87.3045 66.3093 87.0158 65.9253 86.6271 65.66C86.2383 65.3946 85.7713 65.2627 85.2984 65.2847H82.7508C82.1058 65.2847 81.8908 65.5064 81.8801 66.1505C81.8729 66.5802 81.8753 67.1556 81.8777 67.7293V67.7306V67.7321V67.7336C81.8789 68.0184 81.8801 68.3027 81.8801 68.5684V71.2081C81.8711 71.3039 81.8825 71.4005 81.9135 71.4918C81.9445 71.5831 81.9943 71.6671 82.06 71.7385C82.1256 71.8099 82.2056 71.8672 82.2949 71.9067C82.3842 71.9463 82.4808 71.9673 82.5788 71.9683C82.6812 71.9712 82.7832 71.9536 82.8784 71.9164C82.9737 71.8792 83.0602 71.8233 83.1327 71.7522C83.2051 71.681 83.262 71.596 83.2999 71.5024C83.3377 71.4089 83.3557 71.3087 83.3528 71.2081V70.1522C83.3528 70.0255 83.3528 69.8355 83.5247 69.8355C83.6107 69.8355 83.6969 69.831 83.7826 69.8265H83.7828C84.1904 69.8054 84.5862 69.7849 84.8792 70.2472C85.2297 70.7595 85.6216 71.2432 86.0509 71.6938C86.11 71.7755 86.1857 71.8441 86.2734 71.8953C86.361 71.9464 86.4586 71.9791 86.5598 71.991C86.6611 72.0029 86.7637 71.9939 86.8612 71.9646C86.9587 71.9352 87.0489 71.8861 87.1259 71.8205C87.2046 71.7638 87.2697 71.6908 87.3165 71.6068C87.3634 71.5226 87.3909 71.4295 87.397 71.3338C87.4032 71.2381 87.3878 71.1423 87.3521 71.053C87.3164 70.9638 87.2612 70.8834 87.1904 70.8174C87.0721 70.4584 86.8034 70.1522 86.5347 69.846ZM85.2554 68.4417C84.9654 68.4575 84.6747 68.4575 84.3847 68.4417C83.9179 68.4417 83.6841 68.4417 83.567 68.3248C83.4495 68.2075 83.4495 67.9726 83.4495 67.502C83.4602 67.4072 83.4602 67.3116 83.4495 67.2169C83.342 66.6362 83.6107 66.4672 84.159 66.5306C84.5433 66.5309 84.9273 66.5521 85.3092 66.5939C85.5397 66.623 85.7491 66.7402 85.8921 66.9201C86.035 67.1001 86.0998 67.3281 86.0724 67.5548C86.0782 67.6657 86.0617 67.7767 86.0237 67.8814C85.9858 67.9861 85.9272 68.0823 85.8513 68.1647C85.7754 68.2471 85.6837 68.314 85.5815 68.3615C85.4792 68.409 85.3684 68.4363 85.2554 68.4417ZM178.595 65.2635C179.124 65.247 179.654 65.2859 180.175 65.3797V65.4219C180.952 65.5991 181.64 66.0438 182.113 66.6756C182.586 67.3074 182.813 68.0845 182.753 68.8664C182.693 69.6483 182.351 70.3834 181.787 70.9388C181.223 71.4942 180.476 71.8331 179.68 71.8944C178.932 71.9313 178.182 71.9313 177.434 71.8944C176.789 71.8838 176.574 71.6515 176.574 71.0075V66.2349C176.574 65.4958 176.81 65.2635 177.573 65.2635H178.595ZM178.19 70.4175C178.336 70.564 178.629 70.564 179.218 70.564C179.478 70.5799 179.738 70.5433 179.983 70.4565C180.227 70.3697 180.451 70.2346 180.641 70.0594C180.83 69.8843 180.981 69.6728 181.084 69.4382C181.187 69.2035 181.24 68.9506 181.239 68.6951C181.266 68.4316 181.237 68.1656 181.154 67.9136C181.071 67.6617 180.936 67.4293 180.757 67.231C180.579 67.0327 180.36 66.8728 180.116 66.7614C179.871 66.6499 179.606 66.5893 179.336 66.5834C179.24 66.5834 179.146 66.5869 179.053 66.5904C178.867 66.5974 178.681 66.6045 178.466 66.5834C178.143 66.5517 178.046 66.6995 178.046 66.9951V68.5578V69.4131C178.046 69.9851 178.046 70.2728 178.19 70.4175ZM78.4724 65.2741H76.5052C75.8495 65.2741 75.5485 65.4747 75.5378 66.2033C75.5306 66.6894 75.533 67.2271 75.5354 67.7633V67.7645C75.5366 68.0316 75.5378 68.2982 75.5378 68.5579V71.2715C75.5333 71.3619 75.5479 71.4522 75.5807 71.5368C75.6136 71.6214 75.6639 71.6983 75.7285 71.7628C75.7932 71.8273 75.8708 71.878 75.9563 71.9115C76.0419 71.9451 76.1337 71.9608 76.2258 71.9578C76.323 71.965 76.4207 71.9527 76.5129 71.9217C76.6051 71.8907 76.69 71.8417 76.7624 71.7775C76.8347 71.7133 76.8931 71.6354 76.9339 71.5484C76.9747 71.4614 76.9971 71.3672 76.9997 71.2715C77.0374 71.0088 77.0374 70.7423 76.9997 70.4796C76.9997 70.0678 77.075 69.8672 77.548 69.9094C77.9053 69.9456 78.2655 69.9456 78.6229 69.9094C79.2487 69.8898 79.8409 69.6268 80.2693 69.1783C80.6977 68.7298 80.9272 68.1325 80.9072 67.5179C80.8873 66.9032 80.6195 66.3215 80.1629 65.9007C79.7063 65.4799 79.0982 65.2545 78.4724 65.2741ZM77.7199 68.6318C77.4248 68.6318 77.2562 68.6318 77.16 68.5484C77.032 68.4374 77.032 68.1787 77.032 67.5759C77.032 67.432 77.0296 67.3092 77.0275 67.2046C77.0214 66.8912 77.0185 66.74 77.0925 66.6677C77.1616 66.6003 77.2975 66.6014 77.5602 66.6036C77.612 66.6041 77.6686 66.6045 77.7307 66.6045C78.8057 66.6045 79.3431 66.9002 79.3646 67.5865C79.3861 68.2728 78.8702 68.6318 77.7199 68.6318ZM144.884 65.6859C145.69 67.4492 146.485 69.2125 147.27 70.9652C147.294 71.037 147.309 71.1115 147.313 71.187C147.33 71.3255 147.303 71.4659 147.236 71.5888C147.169 71.7117 147.064 71.8111 146.937 71.8733C146.821 71.9379 146.687 71.9655 146.554 71.9523C146.421 71.939 146.296 71.8856 146.195 71.7994C146.058 71.6946 145.956 71.5508 145.905 71.3876C145.733 70.3951 145.045 70.2789 144.206 70.3951C144.06 70.4162 143.912 70.4162 143.766 70.3951C142.917 70.3212 142.282 70.4795 142.057 71.451C142.041 71.5531 142.001 71.6501 141.94 71.7339C141.878 71.8176 141.797 71.8857 141.704 71.9322C141.61 71.9788 141.506 72.0026 141.401 72.0015C141.296 72.0004 141.193 71.9746 141.1 71.9261C140.627 71.6833 140.584 71.3031 140.777 70.8702C140.999 70.3805 141.221 69.8908 141.443 69.4009C141.987 68.2005 142.533 66.9987 143.067 65.7915C143.134 65.6113 143.253 65.4543 143.41 65.3399C143.566 65.2254 143.754 65.1585 143.949 65.1474C144.143 65.1238 144.34 65.1638 144.509 65.2611C144.678 65.3585 144.81 65.5077 144.884 65.6859ZM143.712 67.6135C143.489 68.1338 143.289 68.5991 143.089 69.0752H144.894C144.738 68.7178 144.593 68.3747 144.441 68.0161C144.301 67.6861 144.156 67.343 143.992 66.9635C143.894 67.1916 143.801 67.4069 143.712 67.6135Z" fill="white"/>
</g>
<defs>
<clipPath id="clip0">
<rect width="190" height="72" fill="white"/>
</clipPath>
</defs>
</svg>
